# xmcd
#
# Track frame offsets: 
#        150
#        18279
#        35693
#        53237
#        72767
#        86086
#        103630
#        119964
#        140072
#        156048
#        171025
#        193413
#        209473
#
# Disc length: 3043 seconds
#
# Revision: 1
# Processed by: cddbd v1.5.2PL0 Copyright (c) Steve Scherf et al.
# Submitted via: ExactAudioCopyFreeDBPlugin 1.0
#
DISCID=c30be10d
DTITLE=黑鸭子 - DTSES影视经典
DYEAR=2008
DGENRE=DTSES
TTITLE0=浏阳河
TTITLE1=边疆的泉水清又纯
TTITLE2=婚誓
TTITLE3=红梅赞
TTITLE4=映山红
TTITLE5=我的祖国
TTITLE6=军港之夜
TTITLE7=知音
TTITLE8=月亮寨姑娘
TTITLE9=洪湖水 浪打浪
TTITLE10=谁不说俺家乡好
TTITLE11=妹妹找哥泪花流
TTITLE12=渔光曲
EXTD=
EXTT0=
EXTT1=
EXTT2=
EXTT3=
EXTT4=
EXTT5=
EXTT6=
EXTT7=
EXTT8=
EXTT9=
EXTT10=
EXTT11=
EXTT12=
PLAYORDER=
